<svg xmlns="http://www.w3.org/2000/svg" width="171" height="173"><path fill-rule="evenodd" d="M111.044 100.69l-.2-.067-.07-.199-20.941-57.871H81.16l-21.019 58.068-.195.067a80.5 80.5 0 00-26.116 14.493l-1.285 1.064L73.327 10.294h24.341l.106.279 40.674 105.673-1.285-1.064a80.54 80.54 0 00-26.119-14.492m-39.457-2.927l13.907-38.285L99.4 97.763l-.733-.119a80.81 80.81 0 00-26.344 0l-.736.119zm41.624 40.319c-8.243-5.35-17.829-8.178-27.717-8.178-9.886 0-19.471 2.828-27.715 8.179l-1.093.707 11.106-30.571.222-.056a72.003 72.003 0 0134.96 0l.227.056.076.218 11.025 30.351-1.091-.706zm37.433 9.851l9.416 24.461h10.386L104.319.597H66.731L.544 172.394h10.387l9.417-24.463a71.902 71.902 0 0134.582-35.082l.955-.453-21.711 59.998h10.305l3.149-8.68c6.791-14.802 21.646-24.344 37.866-24.344 16.219 0 31.064 9.513 37.822 24.236l3.196 8.788h10.302l-21.706-59.998.957.453c15.276 7.235 27.553 19.696 34.579 35.084"/></svg>