<svg xmlns="http://www.w3.org/2000/svg" width="386" height="97"><path fill="#FFF" fill-rule="evenodd" d="M337.324 96.67c-26.583.014-48.119-21.545-48.137-48.125-.006-26.578 21.554-48.11 48.137-48.124 26.582-.013 48.116 21.546 48.131 48.124.016 26.58-21.549 48.109-48.131 48.125zm0-80.029c-17.642.001-31.926 14.282-31.92 31.904.011 17.627 14.278 31.925 31.92 31.912 17.63-.014 31.936-14.285 31.912-31.912 0-17.622-14.282-31.919-31.912-31.904zM277.41 95.177l-18.634.011-15.432-31.521-20.307.012.016 31.527-16.76.009-.046-92.945s29.54-.036 37.032-.041c.275 0 3.529.011 3.773.018 15.944.385 28.756 13.832 28.762 30.381.014 11.707-6.387 21.864-15.772 26.956l17.422 35.593h-.054zm-21.725-72.262c-2.385-2.93-6.35-5.014-10.489-5.219l-22.183.009.021 30.257 21.301-.042c4.111 0 8.662-2.056 11.174-5.018 2.238-2.635 3.749-6.114 3.749-10.117-.009-3.85-1.401-7.193-3.573-9.87zM143.269 80.402c11.821-.006 22.988-4.706 26.745-16.735l17.607-.009c-4.376 21.68-22.179 33.014-44.352 33.014-25.508 0-46.954-21.523-46.971-48.107-.02-27.293 21.463-48.13 46.971-48.142 21.806-.015 39.557 10.981 44.264 34.123l-17.507.005c-4.111-12.848-14.197-18.078-26.757-17.99-15.301.114-30.223 13.506-30.217 31.711.016 17.619 14.194 32.142 30.217 32.13zm-78.745-1.148l-39.753.031-5.676 15.921-18.583.011L35.63 2.229l17.947-.009L88.79 95.168l-18.557.009-5.709-15.923zM44.612 24.431L30.359 63.67l28.57-.012-14.317-39.227z"/></svg>